<?xml version="1.0" encoding="utf-8"?>
<!-- Generator: Adobe Illustrator 19.2.0, SVG Export Plug-In . SVG Version: 6.00 Build 0)  -->
<svg version="1.2" baseProfile="tiny" id="Layer_1" xmlns="http://www.w3.org/2000/svg" xmlns:xlink="http://www.w3.org/1999/xlink"
	 x="0px" y="0px" viewBox="0 0 76 80" xml:space="preserve">
<polygon fill="#FFFFFF" stroke="#000000" stroke-width="4" stroke-linecap="round" stroke-linejoin="round" stroke-miterlimit="10" points="
	62,52 72,42 62,32 62,18 48,18 38,8 28,18 14,18 14,32 4,42 14,52 14,66 28,66 38,76 48,66 62,66 "/>
<line fill="none" stroke="#000000" stroke-width="4" stroke-linecap="round" stroke-linejoin="round" stroke-miterlimit="10" x1="43" y1="26" x2="43" y2="33"/>
<line fill="none" stroke="#000000" stroke-width="4" stroke-linecap="round" stroke-linejoin="round" stroke-miterlimit="10" x1="33" y1="26" x2="33" y2="33"/>
<polygon fill="#FFFFFF" stroke="#000000" stroke-width="4" stroke-linecap="round" stroke-linejoin="round" stroke-miterlimit="10" points="
	23,41 30,58 45,58 52,41 "/>
<line fill="none" stroke="#000000" stroke-width="3" stroke-linecap="round" stroke-linejoin="round" stroke-miterlimit="10" x1="67.5" y1="13.5" x2="74.5" y2="6.5"/>
<line fill="none" stroke="#000000" stroke-width="3" stroke-linecap="round" stroke-linejoin="round" stroke-miterlimit="10" x1="1.5" y1="6.5" x2="8.5" y2="13.5"/>
<line fill="none" stroke="#000000" stroke-width="3" stroke-linecap="round" stroke-linejoin="round" stroke-miterlimit="10" x1="8.5" y1="71.5" x2="1.5" y2="78.5"/>
<line fill="none" stroke="#000000" stroke-width="3" stroke-linecap="round" stroke-linejoin="round" stroke-miterlimit="10" x1="74.5" y1="78.5" x2="67.5" y2="71.5"/>
<g>
	
		<polygon fill="#FFFFFF" stroke="#000000" stroke-width="4" stroke-linecap="round" stroke-linejoin="round" stroke-miterlimit="10" points="
		61.1,18 56.1,26 36.1,18 	"/>
	
		<polygon fill="#FFFFFF" stroke="#000000" stroke-width="4" stroke-linecap="round" stroke-linejoin="round" stroke-miterlimit="10" points="
		22.1,18 30.1,2 46.1,2 54.1,18 	"/>
	
		<line fill="none" stroke="#000000" stroke-width="4" stroke-linecap="round" stroke-linejoin="round" stroke-miterlimit="10" x1="34.1" y1="2" x2="34.1" y2="18"/>
	
		<line fill="none" stroke="#000000" stroke-width="4" stroke-linecap="round" stroke-linejoin="round" stroke-miterlimit="10" x1="42.1" y1="2" x2="42.1" y2="18"/>
</g>
</svg>
