<?xml version="1.0" encoding="utf-8"?>
<!-- Generator: Adobe Illustrator 18.1.1, SVG Export Plug-In . SVG Version: 6.00 Build 0)  -->
<svg version="1.1" id="Comments" xmlns="http://www.w3.org/2000/svg" xmlns:xlink="http://www.w3.org/1999/xlink" x="0px" y="0px"
	 viewBox="0 0 80 80" enable-background="new 0 0 80 80" xml:space="preserve">
<polyline fill="#FFFFFF" stroke="#000000" stroke-width="3" stroke-miterlimit="10" points="26.5,51.5 26.5,68.5
	20.5,68.5 20.5,51.5 "/>
<polyline fill="#FFFFFF" stroke="#000000" stroke-width="3" stroke-miterlimit="10" points="32.5,51.5 32.5,75.5
	26.5,75.5 26.5,51.5 "/>
<polyline fill="#FFFFFF" stroke="#000000" stroke-width="3" stroke-miterlimit="10" points="38.5,51.5 38.5,62.5
	32.5,62.5 32.5,51.5 "/>
<polyline fill="#FFFFFF" stroke="#000000" stroke-width="3" stroke-miterlimit="10" points="44.5,51.5 44.5,73.5
	38.5,73.5 38.5,51.5 "/>
<polyline fill="#FFFFFF" stroke="#000000" stroke-width="3" stroke-miterlimit="10" points="50.5,51.5 50.5,83.5
	44.5,83.5 44.5,51.5 "/>
<polyline fill="#FFFFFF" stroke="#000000" stroke-width="3" stroke-miterlimit="10" points="56.5,51.5 56.5,75.5
	50.5,75.5 50.5,51.5 "/>
<polyline fill="#FFFFFF" stroke="#000000" stroke-width="3" stroke-miterlimit="10" points="62.5,51.5 62.5,62.5
	56.5,62.5 56.5,51.5 "/>
<polygon fill="#FFFFFF" stroke="#000000" stroke-width="3" stroke-miterlimit="10" points="11.5,6.5 59.5,6.5
	55.5,10.5 55.5,17.5 7.5,17.5 7.5,10.5 "/>
<polygon fill="#FFFFFF" stroke="#000000" stroke-width="3" stroke-miterlimit="10" points="61.5,6.5 13.5,6.5
	17.5,10.5 17.5,32.5 65.5,32.5 65.5,10.5 "/>
<rect x="8" y="32" fill="#FFFFFF" stroke="#000000" stroke-width="4" stroke-miterlimit="10" width="62" height="19"/>
<line fill="#FFFFFF" stroke="#000000" stroke-width="3" stroke-miterlimit="10" x1="14.5" y1="32.5" x2="14.5" y2="51.5"/>
<line fill="none" stroke="#000000" stroke-width="3" stroke-miterlimit="10" x1="23.5" y1="13.5" x2="54.5" y2="13.5"/>
<line fill="none" stroke="#000000" stroke-width="3" stroke-miterlimit="10" x1="23.5" y1="19.5" x2="48.5" y2="19.5"/>
<line fill="none" stroke="#000000" stroke-width="3" stroke-miterlimit="10" x1="23.5" y1="25.5" x2="48.5" y2="25.5"/>
<line fill="none" stroke="#000000" stroke-width="4" stroke-miterlimit="10" x1="64" y1="39" x2="60" y2="39"/>
</svg>
