<?xml version="1.0" encoding="utf-8"?>
<!-- Generator: Adobe Illustrator 20.0.0, SVG Export Plug-In . SVG Version: 6.00 Build 0)  -->
<svg version="1.2" baseProfile="tiny" id="Layer_1" xmlns="http://www.w3.org/2000/svg" xmlns:xlink="http://www.w3.org/1999/xlink"
	 x="0px" y="0px" viewBox="0 0 80 80" xml:space="preserve">
<g>
	<g>
		<polygon fill="#FFFFFF" stroke="#000000" stroke-width="3" stroke-miterlimit="10" points="27,21.5 23,17.5 30,10.5 34.1,14.4 		
			"/>
		<polygon fill="#FFFFFF" stroke="#000000" stroke-width="3" stroke-miterlimit="10" points="63.1,57.5 58.8,53.3 66,46.5 70,50.5 
					"/>
		<polygon fill="#FFFFFF" stroke="#000000" stroke-width="4" stroke-miterlimit="10" points="11,17.5 38,42.5 62,69.5 68,63.5 
			53.9,26.4 16,12.5 		"/>
		<polygon fill="#FFFFFF" stroke="#000000" stroke-width="4" stroke-miterlimit="10" points="16,46.5 34,65.5 37,62.5 32,48.5 
			19,43.5 		"/>
		<polygon fill="#FFFFFF" stroke="#000000" stroke-width="4" stroke-miterlimit="10" points="27,59.5 21,59.5 21,53.5 56,13.5 
			61,12.5 67,13.5 68,18.5 68,24.5 		"/>
		<line fill="none" stroke="#000000" stroke-width="3" stroke-miterlimit="10" x1="15" y1="14.5" x2="38" y2="32.5"/>
		<line fill="none" stroke="#000000" stroke-width="3" stroke-miterlimit="10" x1="66" y1="65.5" x2="47" y2="41.5"/>
	</g>
	
		<line fill="none" stroke="#000000" stroke-width="3" stroke-linecap="round" stroke-linejoin="round" stroke-miterlimit="10" x1="7" y1="74.5" x2="17" y2="63.5"/>
	
		<line fill="none" stroke="#000000" stroke-width="3" stroke-linecap="round" stroke-linejoin="round" stroke-miterlimit="10" x1="16" y1="74.5" x2="23" y2="67.5"/>
	
		<line fill="none" stroke="#000000" stroke-width="3" stroke-linecap="round" stroke-linejoin="round" stroke-miterlimit="10" x1="6" y1="65.5" x2="13" y2="56.5"/>
</g>
</svg>
